<svg width="27" height="33" viewBox="0 0 27 33" fill="none" xmlns="http://www.w3.org/2000/svg">
<path d="M23.5178 32.9709L15.6031 21.981C14.4018 22.121 13.3418 22.1909 12.3525 22.1909H2.88311V32.9709H0.480469V0.0710449H12.3525C16.5218 0.0710449 19.7725 1.05105 22.1751 3.01104C24.5778 4.97104 25.7085 7.70101 25.7085 11.131C25.7085 13.721 25.0018 15.891 23.6591 17.711C22.3165 19.461 20.4084 20.721 17.8645 21.421L26.1325 32.9009H23.5178V32.9709ZM12.3525 20.091C15.8858 20.091 18.5711 19.321 20.4791 17.781C22.3871 16.241 23.3058 14.001 23.3058 11.201C23.3058 8.40103 22.3871 6.16102 20.4791 4.62103C18.5711 3.08103 15.8858 2.31105 12.3525 2.31105H2.88311V20.161H12.3525V20.091Z" fill="#1588F1"/>
</svg>
