<svg width="212" height="33" fill="none" xmlns="http://www.w3.org/2000/svg"><path d="M170.518 32.97l-7.915-10.989c-1.201.14-2.261.21-3.251.21h-9.469v10.78h-2.403V.07h11.872c4.17 0 7.42.98 9.823 2.94 2.403 1.96 3.533 4.69 3.533 8.12 0 2.59-.706 4.76-2.049 6.58-1.343 1.75-3.251 3.01-5.795 3.71l8.268 11.48h-2.614v.07zm-11.166-12.879c3.534 0 6.219-.77 8.127-2.31 1.908-1.54 2.827-3.78 2.827-6.58 0-2.8-.919-5.04-2.827-6.58s-4.593-2.31-8.127-2.31h-9.469v17.85h9.469v-.07zM32.012.071l-14.77 32.9H14.77L0 .07h2.685l13.427 29.82L29.468.07h2.544z" fill="#1588F1"/><path d="M66.356 17.291h17.666v-2.1h-20.14v17.78h22.896V30.8H66.285V17.29h.07zM63.953.071v2.17h22.896V.071H63.953zm125.151 0v2.17H212V.071h-22.896zm2.403 30.73V17.29h17.666v-2.1h-20.14v17.78H212V30.8h-20.493zM45.51.07L32.084 29.82l-5.442-11.97-1.272 2.94 5.441 12.11h2.403L47.984 0H45.51v.07zm85.507 32.9h2.614L118.367.072h-2.473l-15.264 32.9h2.615l4.946-10.78h17.879l4.947 10.78zm-21.836-12.879l7.914-17.36 7.986 17.36h-15.9z" fill="#fff"/></svg>