<svg width="212" height="56" viewBox="0 0 212 56" fill="none" xmlns="http://www.w3.org/2000/svg">
<path d="M170.518 32.9712L162.603 21.9812C161.402 22.1212 160.342 22.1912 159.352 22.1912H149.883V32.9712H147.48V0.0712891H159.352C163.522 0.0712891 166.772 1.05129 169.175 3.01129C171.578 4.97128 172.708 7.70125 172.708 11.1312C172.708 13.7212 172.002 15.8912 170.659 17.7112C169.316 19.4612 167.408 20.7212 164.864 21.4212L173.132 32.9012H170.518V32.9712ZM159.352 20.0912C162.886 20.0912 165.571 19.3212 167.479 17.7812C169.387 16.2412 170.306 14.0013 170.306 11.2013C170.306 8.40128 169.387 6.16127 167.479 4.62127C165.571 3.08128 162.886 2.31129 159.352 2.31129H149.883V20.1612H159.352V20.0912Z" fill="#1E4FC6"/>
<path d="M32.012 0.0712891L17.2427 32.9712H14.7693L0 0.0712891H2.68532L16.112 29.8912L29.468 0.0712891H32.012Z" fill="#1E4FC6"/>
<path d="M66.3557 17.2912H84.0223V15.1912H63.8823V32.9712H86.7783V30.8012H66.285V17.2912H66.3557ZM63.953 0.0712891V2.24129H86.849V0.0712891H63.953Z" fill="#000032"/>
<path d="M189.104 0.0712891V2.24129H212V0.0712891H189.104ZM191.507 30.8012V17.2912H209.173V15.1912H189.033V32.9712H212V30.8012H191.507Z" fill="#000032"/>
<path d="M45.5104 0.070004L32.0837 29.8199L26.6424 17.85L25.3704 20.7899L30.8117 32.8999H33.2144L47.9837 0H45.5104V0.070004Z" fill="#000032"/>
<path d="M7.27866 50.6801C7.27866 51.3801 6.996 51.9401 6.43067 52.3601C5.86534 52.7801 5.088 52.9201 3.95734 52.9201H0V44.6602H3.88667C4.876 44.6602 5.65332 44.8701 6.21866 45.2201C6.78399 45.5701 7.06667 46.1302 7.06667 46.7601C7.06667 47.1801 6.92533 47.6001 6.71333 47.8801C6.50133 48.1601 6.148 48.4401 5.724 48.5801C6.71334 49.0001 7.27866 49.6301 7.27866 50.6801ZM1.484 48.3002H3.74532C4.31066 48.3002 4.73467 48.2301 5.08801 48.0201C5.37067 47.8101 5.51199 47.5301 5.51199 47.1101C5.51199 46.3402 4.94666 45.9201 3.74532 45.9201H1.484V48.3002ZM5.3 51.5201C5.58267 51.3101 5.79467 51.0301 5.79467 50.6101C5.79467 50.1901 5.65334 49.8401 5.37067 49.6301C5.088 49.4201 4.66401 49.3501 4.02801 49.3501H1.55468V51.8001H3.95734C4.52267 51.8001 5.01733 51.7301 5.3 51.5201Z" fill="#000032"/>
<path d="M9.32873 44.731H10.8127V50.751L15.9007 44.731H17.2434V52.9909H15.7594V46.971L10.6714 52.9909H9.25806V44.731H9.32873Z" fill="#000032"/>
<path d="M26.1477 45.2197C26.7837 45.5697 27.2783 46.0596 27.6317 46.6896C27.985 47.3196 28.197 48.0197 28.197 48.8597C28.197 49.6997 27.985 50.3996 27.6317 51.0296C27.2783 51.6596 26.7837 52.1497 26.1477 52.4996C25.5117 52.8496 24.805 53.0596 23.957 53.0596C23.3917 53.0596 22.8263 52.9196 22.3317 52.7096C21.837 52.4996 21.413 52.1496 21.0597 51.7296V55.9996H19.5757V44.7297H20.989V46.0597C21.3424 45.6397 21.7663 45.2897 22.261 45.0097C22.7557 44.7997 23.321 44.6597 23.957 44.6597C24.7343 44.6597 25.5117 44.8697 26.1477 45.2197ZM25.2997 51.3796C25.7237 51.1696 26.077 50.8196 26.289 50.3296C26.501 49.9096 26.6423 49.3496 26.6423 48.7896C26.6423 48.2296 26.501 47.7397 26.289 47.2497C26.077 46.8297 25.7237 46.4797 25.2997 46.1997C24.8757 45.9897 24.381 45.8497 23.8863 45.8497C23.3917 45.8497 22.897 45.9897 22.473 46.1997C22.049 46.4097 21.6957 46.7597 21.4837 47.2497C21.2717 47.6697 21.1303 48.1596 21.1303 48.7896C21.1303 49.3496 21.2717 49.8396 21.4837 50.3296C21.6957 50.7496 22.049 51.0996 22.473 51.3796C22.897 51.6596 23.3917 51.7296 23.8863 51.7296C24.381 51.7296 24.8757 51.6596 25.2997 51.3796Z" fill="#000032"/>
<path d="M36.1805 46.061H33.1418V52.9909H31.6578V46.061H28.6191V44.731H36.1805V46.061Z" fill="#000032"/>
<path d="M46.4283 44.731L42.4003 53.7609C42.0469 54.6009 41.6229 55.1609 41.1283 55.5109C40.6336 55.8609 40.0683 56.0009 39.4323 56.0009C39.0083 56.0009 38.6549 55.9309 38.2309 55.7909C37.8776 55.6509 37.5243 55.4409 37.3123 55.2309L37.9483 54.1109C38.3723 54.5309 38.8669 54.7409 39.4323 54.7409C39.7856 54.7409 40.0683 54.6709 40.3509 54.4609C40.5629 54.2509 40.8456 53.9709 40.9869 53.4809L41.2696 52.9209L37.5949 44.731H39.1496L42.0469 51.311L44.9443 44.731H46.4283Z" fill="#000032"/>
<path d="M53.6367 45.4997C54.2727 46.0597 54.5554 46.8997 54.5554 48.0196V52.9896H53.1421V51.8696C52.8594 52.2196 52.5061 52.5696 52.0821 52.7796C51.5874 52.9896 51.0927 53.0596 50.4567 53.0596C49.5381 53.0596 48.7608 52.8496 48.1954 52.3596C47.6301 51.9396 47.3474 51.3096 47.3474 50.6096C47.3474 49.9096 47.6301 49.2797 48.1247 48.8597C48.6901 48.4397 49.5381 48.2296 50.6688 48.2296H53.0714V47.9497C53.0714 47.3197 52.8594 46.8296 52.5061 46.4796C52.1527 46.1296 51.5874 45.9896 50.8101 45.9896C50.3154 45.9896 49.8207 46.0597 49.3967 46.1997C48.9021 46.3397 48.5488 46.5496 48.1954 46.8296L47.5594 45.7097C47.9834 45.3597 48.4781 45.0796 49.1141 44.9396C49.7501 44.7996 50.3154 44.6597 51.0221 44.6597C52.1528 44.6597 53.0007 44.9397 53.6367 45.4997ZM52.1527 51.5196C52.5767 51.2396 52.8594 50.8896 53.0714 50.4696V49.3497H50.7394C49.4674 49.3497 48.8314 49.7696 48.8314 50.6096C48.8314 51.0296 48.9727 51.3796 49.3261 51.5896C49.6794 51.7996 50.1034 51.9396 50.6688 51.9396C51.2341 51.9396 51.7287 51.7996 52.1527 51.5196Z" fill="#000032"/>
<path d="M64.094 44.731V52.9909H62.61V46.061H59.006L58.9353 47.8809C58.8647 49.0009 58.794 49.9109 58.6527 50.6809C58.5113 51.4509 58.2993 52.0109 57.946 52.4309C57.5927 52.8509 57.1687 53.1309 56.5327 53.1309C56.25 53.1309 55.9673 53.0609 55.614 52.9909L55.6847 51.7309C55.826 51.7309 55.9673 51.801 56.038 51.801C56.462 51.801 56.7447 51.5909 56.9567 51.2409C57.1687 50.8909 57.31 50.4709 57.3807 49.9809C57.4513 49.4909 57.522 48.7909 57.522 47.8809L57.6633 44.871H64.094V44.731Z" fill="#000032"/>
<path d="M72.9274 48.2296C73.4928 48.7196 73.7754 49.3496 73.7754 50.1896C73.7754 51.0996 73.4927 51.7296 72.8567 52.2196C72.2207 52.7096 71.3727 52.9196 70.3127 52.9196H66.7087V44.6597H68.1927V47.4597H70.5247C71.5847 47.5297 72.3621 47.8096 72.9274 48.2296ZM71.7261 51.4497C72.0794 51.1697 72.2208 50.7496 72.2208 50.1896C72.2208 49.6296 72.0794 49.2797 71.7261 48.9997C71.3727 48.7197 70.8781 48.6496 70.1714 48.5796H68.1927V51.7997H70.1714C70.8074 51.8697 71.3727 51.7297 71.7261 51.4497Z" fill="#000032"/>
<path d="M75.6843 44.731H77.1683V48.2309H81.903V44.731H83.387V52.9909H81.903V49.561H77.1683V52.9909H75.6843V44.731Z" fill="#000032"/>
<path d="M91.9365 45.4997C92.5725 46.0597 92.8552 46.8997 92.8552 48.0196V52.9896H91.4419V51.8696C91.1592 52.2196 90.8059 52.5696 90.3819 52.7796C89.8872 52.9896 89.3925 53.0596 88.7565 53.0596C87.8379 53.0596 87.0606 52.8496 86.4952 52.3596C85.9299 51.9396 85.6472 51.3096 85.6472 50.6096C85.6472 49.9096 85.9299 49.2797 86.4245 48.8597C86.9192 48.4397 87.8379 48.2296 88.9686 48.2296H91.3712V47.9497C91.3712 47.3197 91.1592 46.8296 90.8059 46.4796C90.4525 46.1296 89.8872 45.9896 89.1099 45.9896C88.6152 45.9896 88.1205 46.0597 87.6965 46.1997C87.2019 46.3397 86.8486 46.5496 86.4952 46.8296L85.8592 45.7097C86.2832 45.3597 86.7779 45.0796 87.4139 44.9396C87.9792 44.7296 88.6152 44.6597 89.3219 44.6597C90.4526 44.6597 91.3712 44.9397 91.9365 45.4997ZM90.4525 51.5196C90.8765 51.2396 91.1592 50.8896 91.3712 50.4696V49.3497H89.0392C87.7672 49.3497 87.1312 49.7696 87.1312 50.6096C87.1312 51.0296 87.2725 51.3796 87.6259 51.5896C87.9792 51.7996 88.4032 51.9396 88.9686 51.9396C89.5339 51.9396 90.0285 51.7996 90.4525 51.5196Z" fill="#000032"/>
<path d="M102.255 44.731V52.9909H100.912V50.401H98.5093H98.368L96.5306 52.9909H94.9053L96.9546 50.1909C96.3186 49.9809 95.824 49.7009 95.5413 49.2809C95.188 48.8609 95.0466 48.301 95.0466 47.671C95.0466 46.761 95.4 45.991 96.036 45.501C96.672 45.011 97.5906 44.731 98.7213 44.731H102.255ZM97.0253 48.861C97.3786 49.141 97.8733 49.2809 98.5799 49.2809H100.912V46.061H98.6506C97.2373 46.061 96.4599 46.621 96.4599 47.671C96.4599 48.231 96.6719 48.651 97.0253 48.861Z" fill="#000032"/>
<path d="M114.975 45.4997C115.611 46.0597 115.894 46.8997 115.894 48.0196V52.9896H114.481V51.8696C114.198 52.2196 113.845 52.5696 113.421 52.7796C112.926 52.9896 112.431 53.0596 111.795 53.0596C110.877 53.0596 110.099 52.8496 109.534 52.3596C108.969 51.9396 108.686 51.3096 108.686 50.6096C108.686 49.9096 108.969 49.2797 109.463 48.8597C109.958 48.4397 110.877 48.2296 112.007 48.2296H114.41V47.9497C114.41 47.3197 114.198 46.8296 113.845 46.4796C113.491 46.1296 112.926 45.9896 112.149 45.9896C111.654 45.9896 111.159 46.0597 110.735 46.1997C110.241 46.3397 109.887 46.5496 109.534 46.8296L108.898 45.7097C109.322 45.3597 109.817 45.0796 110.453 44.9396C111.018 44.7296 111.654 44.6597 112.361 44.6597C113.491 44.6597 114.41 44.9397 114.975 45.4997ZM113.491 51.5196C113.915 51.2396 114.198 50.8896 114.41 50.4696V49.3497H112.078C110.806 49.3497 110.17 49.7696 110.17 50.6096C110.17 51.0296 110.311 51.3796 110.665 51.5896C111.018 51.7996 111.442 51.9396 112.007 51.9396C112.573 51.9396 113.067 51.7996 113.491 51.5196Z" fill="#000032"/>
<path d="M124.869 45.2197C125.505 45.5697 125.999 46.0596 126.353 46.6896C126.706 47.3196 126.918 48.0197 126.918 48.8597C126.918 49.6997 126.706 50.3996 126.353 51.0296C125.999 51.6596 125.505 52.1497 124.869 52.4996C124.233 52.8496 123.526 53.0596 122.678 53.0596C122.113 53.0596 121.547 52.9196 121.053 52.7096C120.558 52.4996 120.134 52.1496 119.781 51.7296V55.9996H118.297V44.7297H119.71V46.0597C120.063 45.6397 120.487 45.2897 120.982 45.0097C121.477 44.7997 122.042 44.6597 122.678 44.6597C123.526 44.6597 124.233 44.8697 124.869 45.2197ZM124.021 51.3796C124.445 51.1696 124.798 50.8196 125.01 50.3296C125.222 49.9096 125.363 49.3496 125.363 48.7896C125.363 48.2296 125.222 47.7397 125.01 47.2497C124.798 46.8297 124.445 46.4797 124.021 46.1997C123.597 45.9897 123.102 45.8497 122.607 45.8497C122.113 45.8497 121.618 45.9897 121.194 46.1997C120.77 46.4097 120.417 46.7597 120.205 47.2497C119.993 47.6697 119.851 48.1596 119.851 48.7896C119.851 49.3496 119.993 49.8396 120.205 50.3296C120.417 50.7496 120.77 51.0996 121.194 51.3796C121.618 51.6596 122.113 51.7296 122.607 51.7296C123.102 51.7296 123.597 51.6596 124.021 51.3796Z" fill="#000032"/>
<path d="M134.266 52.9907L131.864 49.8407L129.461 52.9907H127.765L131.016 48.7907L127.906 44.8008H129.602L131.864 47.7407L134.125 44.8008H135.75L132.641 48.7907L135.962 52.9907H134.266Z" fill="#000032"/>
<path d="M137.871 44.731H139.355V50.751L144.443 44.731H145.785V52.9909H144.301V46.971L139.213 52.9909H137.8V44.731H137.871Z" fill="#000032"/>
<path d="M155.254 46.061H152.216V52.9909H150.732V46.061H147.693V44.731H155.254V46.061Z" fill="#000032"/>
<path d="M164.23 49.3497H157.517C157.588 50.0497 157.941 50.6797 158.506 51.0997C159.072 51.5197 159.708 51.7296 160.556 51.7296C161.545 51.7296 162.322 51.3797 162.958 50.7497L163.806 51.7296C163.453 52.1496 162.958 52.4996 162.393 52.7096C161.828 52.9196 161.192 53.0596 160.556 53.0596C159.708 53.0596 158.93 52.8496 158.224 52.4996C157.517 52.1496 157.022 51.6596 156.669 51.0296C156.316 50.3996 156.104 49.6297 156.104 48.8597C156.104 48.0897 156.316 47.3196 156.669 46.6896C157.022 46.0596 157.517 45.5697 158.153 45.2197C158.789 44.8697 159.496 44.6597 160.273 44.6597C161.05 44.6597 161.757 44.8697 162.393 45.2197C163.029 45.5697 163.524 46.0596 163.877 46.6896C164.23 47.3196 164.372 48.0897 164.372 48.8597C164.301 48.9997 164.301 49.1397 164.23 49.3497ZM158.365 46.5497C157.87 46.9697 157.588 47.5296 157.517 48.2296H162.817C162.746 47.5296 162.464 46.9697 161.969 46.5497C161.474 46.1297 160.909 45.9197 160.132 45.9197C159.425 45.9197 158.86 46.1297 158.365 46.5497Z" fill="#000032"/>
<path d="M169.529 49.4909H167.833V52.9909H166.349V44.731H167.833V48.2309H169.6L172.285 44.731H173.91L170.73 48.721L174.122 52.9909H172.356L169.529 49.4909Z" fill="#000032"/>
<path d="M182.956 46.061H179.917V52.9909H178.433V46.061H175.395V44.731H182.956V46.061Z" fill="#000032"/>
<path d="M193.202 44.731L189.174 53.7609C188.821 54.6009 188.397 55.1609 187.902 55.5109C187.407 55.8609 186.842 56.0009 186.206 56.0009C185.782 56.0009 185.429 55.9309 185.005 55.7909C184.651 55.6509 184.298 55.4409 184.086 55.2309L184.722 54.1109C185.146 54.5309 185.641 54.7409 186.206 54.7409C186.559 54.7409 186.842 54.6709 187.125 54.4609C187.337 54.2509 187.619 53.9709 187.761 53.4809L188.043 52.9209L184.369 44.731H185.923L188.821 51.311L191.718 44.731H193.202Z" fill="#000032"/>
<path d="M201.33 45.2197C201.966 45.5697 202.461 46.0596 202.814 46.6896C203.167 47.3196 203.379 48.0197 203.379 48.8597C203.379 49.6997 203.167 50.3996 202.814 51.0296C202.461 51.6596 201.966 52.1497 201.33 52.4996C200.694 52.8496 199.987 53.0596 199.139 53.0596C198.574 53.0596 198.009 52.9196 197.514 52.7096C197.019 52.4996 196.595 52.1496 196.242 51.7296V55.9996H194.758V44.7297H196.171V46.0597C196.525 45.6397 196.949 45.2897 197.443 45.0097C197.938 44.7997 198.503 44.6597 199.139 44.6597C199.987 44.6597 200.694 44.8697 201.33 45.2197ZM200.482 51.3796C200.906 51.1696 201.259 50.8196 201.471 50.3296C201.683 49.9096 201.825 49.3496 201.825 48.7896C201.825 48.2296 201.683 47.7397 201.471 47.2497C201.259 46.8297 200.906 46.4797 200.482 46.1997C200.058 45.9897 199.563 45.8497 199.069 45.8497C198.574 45.8497 198.079 45.9897 197.655 46.1997C197.231 46.4097 196.878 46.7597 196.666 47.2497C196.454 47.6697 196.313 48.1596 196.313 48.7896C196.313 49.3496 196.454 49.8396 196.666 50.3296C196.878 50.7496 197.231 51.0996 197.655 51.3796C198.079 51.6596 198.574 51.7296 199.069 51.7296C199.563 51.7296 200.058 51.6596 200.482 51.3796Z" fill="#000032"/>
<path d="M211.08 45.4997C211.716 46.0597 211.999 46.8997 211.999 48.0196V52.9896H210.586V51.8696C210.303 52.2196 209.95 52.5696 209.526 52.7796C209.031 52.9896 208.536 53.0596 207.9 53.0596C206.982 53.0596 206.204 52.8496 205.639 52.3596C205.074 51.9396 204.791 51.3096 204.791 50.6096C204.791 49.9096 205.074 49.2797 205.568 48.8597C206.063 48.4397 206.982 48.2296 208.112 48.2296H210.515V47.9497C210.515 47.3197 210.303 46.8296 209.95 46.4796C209.596 46.1296 209.031 45.9896 208.254 45.9896C207.759 45.9896 207.264 46.0597 206.84 46.1997C206.346 46.3397 205.992 46.5496 205.639 46.8296L205.003 45.7097C205.427 45.3597 205.922 45.0796 206.558 44.9396C207.123 44.7296 207.759 44.6597 208.466 44.6597C209.596 44.6597 210.444 44.9397 211.08 45.4997ZM209.596 51.5196C210.02 51.2396 210.303 50.8896 210.515 50.4696V49.3497H208.183C206.911 49.3497 206.275 49.7696 206.275 50.6096C206.275 51.0296 206.416 51.3796 206.77 51.5896C207.123 51.7996 207.547 51.9396 208.112 51.9396C208.678 51.9396 209.172 51.7996 209.596 51.5196Z" fill="#000032"/>
<path d="M131.017 32.9712H133.631L118.367 0.0712891H115.894L100.63 32.9712H103.245L108.191 22.1912H126.07L131.017 32.9712ZM109.181 20.0912L117.095 2.73127L125.081 20.0912H109.181Z" fill="#000032"/>
</svg>
